<?xml version="1.0" encoding="UTF-8"?>
<svg version="1.1" xmlns="http://www.w3.org/2000/svg" width="690" height="717">
<path d="M0 0 C227.7 0 455.4 0 690 0 C690 236.61 690 473.22 690 717 C462.3 717 234.6 717 0 717 C0 480.39 0 243.78 0 0 Z " fill="#000000" transform="translate(0,0)"/>
<path d="M0 0 C4.3789712 0.43789712 6.36682195 1.62125042 9.75 4.375 C11.67918137 7.26877205 12.12256216 8.50366246 12.66040039 11.80322266 C12.81176956 12.70803879 12.96313873 13.61285492 13.11909485 14.54508972 C13.35598274 16.02710625 13.35598274 16.02710625 13.59765625 17.5390625 C13.76980148 18.57609818 13.94194672 19.61313385 14.11930847 20.68159485 C14.49278049 22.93363332 14.86316032 25.18618624 15.23083496 27.43917847 C16.22725313 33.53902466 17.24813666 39.6347625 18.26953125 45.73046875 C18.47798676 46.97649368 18.68644226 48.22251862 18.9012146 49.50630188 C20.64115812 59.85164601 22.52806606 70.1650331 24.46685791 80.47463989 C28.59406776 102.44335031 32.34532167 124.46968144 36.01420593 146.5186348 C36.42782232 149.00434016 36.84200293 151.48995103 37.25622559 153.97555542 C39.69155437 168.60005135 42.10661085 183.22739702 44.40869141 197.87353516 C44.54462739 198.73811875 44.68056337 199.60270235 44.82061863 200.49348545 C45.47168531 204.6398105 46.11941531 208.78662217 46.76213074 212.93424988 C47.82895813 219.78520123 48.90504883 226.61558875 50.39628601 233.39042664 C50.93687154 236.42347502 50.88356136 239.30308878 50.75 242.375 C104.68142572 226.89951799 157.53739432 207.68874604 209.546875 186.7109375 C210.63815453 186.27118088 210.63815453 186.27118088 211.7514801 185.82254028 C212.44031784 185.54385101 213.12915558 185.26516174 213.83886719 184.97802734 C214.49383179 184.71431335 215.14879639 184.45059937 215.8236084 184.17889404 C217.12971407 183.63384881 218.42483537 183.06185031 219.70861816 182.46612549 C224.45152067 180.27550689 224.45152067 180.27550689 227.75 181.375 C204.40544643 192.17906731 180.66529274 201.91146322 156.75 211.375 C155.92781982 211.7006897 155.10563965 212.02637939 154.25854492 212.36193848 C63.24296686 248.375 63.24296686 248.375 52.75 248.375 C52.88986328 249.21417969 53.02972656 250.05335938 53.17382812 250.91796875 C53.48866698 252.80700189 53.80349996 254.69603601 54.11825562 256.58508301 C54.7645679 260.46372844 55.41142395 264.34228218 56.05908203 268.22070312 C57.4364746 276.47249599 58.80934382 284.72497162 60.16706848 292.98002625 C63.52782229 313.40991941 66.95559267 333.8217827 70.6875 354.1875 C71.01223781 355.96361742 71.33694477 357.73974048 71.66162109 359.51586914 C72.88916045 366.22541165 74.11698768 372.93490282 75.35137939 379.64318848 C76.62504381 386.56602855 77.88716966 393.49081084 79.13528442 400.41830444 C79.53985318 402.65215945 79.94849729 404.88528085 80.36154175 407.11758423 C85.90295163 437.09006314 85.90295163 437.09006314 81.94140625 443.13452148 C79.45863469 445.67288987 77.60083323 446.48797879 74.0390625 446.67578125 C69.00280563 446.01402054 64.97125714 443.02311096 60.75 440.375 C59.18176419 439.41539962 57.61268269 438.45718055 56.04296875 437.5 C42.40231563 429.14593422 28.89342438 420.5739548 15.41015625 411.96875 C5.57378951 405.69218629 -4.28717326 399.46286152 -14.21875 393.33789062 C-19.85797428 389.85952981 -25.4811823 386.35681209 -31.09472656 382.8371582 C-72.46228952 356.90410894 -114.3614346 331.40746021 -158.23779297 309.91772461 C-159.95313232 309.07286499 -159.95313232 309.07286499 -161.703125 308.2109375 C-162.72567383 307.71126465 -163.74822266 307.2115918 -164.80175781 306.69677734 C-167.25 305.375 -167.25 305.375 -169.25 303.375 C-168.875 300.75 -168.875 300.75 -168.25 298.375 C-157.88194489 294.82239492 -147.36341841 292.60988829 -136.64822388 290.40213013 C-113.41030374 285.58857544 -90.34727319 280.13250578 -67.3125 274.4375 C-66.52872356 274.24374283 -65.74494713 274.04998566 -64.93741989 273.85035706 C-37.56417436 267.0764785 -10.20643321 260.1591059 16.84228516 252.17089844 C18.09702637 251.80254883 19.35176758 251.43419922 20.64453125 251.0546875 C21.7322583 250.72968262 22.81998535 250.40467773 23.94067383 250.06982422 C26.75 249.375 26.75 249.375 30.75 249.375 C30.61964859 248.67170563 30.48929718 247.96841125 30.35499573 247.24380493 C19.17796758 186.92808963 19.17796758 186.92808963 14.3125 159.8125 C14.14177979 158.86111145 13.97105957 157.9097229 13.79516602 156.92950439 C13.07327017 152.90531369 12.35169764 148.88106516 11.63049316 144.85675049 C9.14461551 130.98944241 6.64555262 117.12450823 4.14442348 103.25994396 C3.26637281 98.39254623 2.38921683 93.52498854 1.51281166 88.65729427 C0.96356204 85.6078225 0.41349305 82.55849893 -0.13679504 79.5092144 C-0.39314604 78.08783228 -0.64917865 76.66639269 -0.90486145 75.24489021 C-2.15855231 68.27606942 -3.42395406 61.31673489 -4.89601135 54.39025879 C-5.36840911 51.70089646 -5.3932258 49.09629026 -5.25 46.375 C-5.91 46.375 -6.57 46.375 -7.25 46.375 C-7.46914063 47.01953125 -7.68828125 47.6640625 -7.9140625 48.328125 C-9.75426182 52.52507083 -12.16440173 56.26657333 -14.625 60.125 C-15.15955811 60.96699951 -15.69411621 61.80899902 -16.24487305 62.67651367 C-20.17918774 68.82110456 -24.29067566 74.81484182 -28.53662109 80.74707031 C-32.69798891 86.56305488 -36.73564305 92.45674904 -40.75 98.375 C-46.6740539 107.09664893 -52.69386002 115.74203145 -58.80273438 124.33496094 C-60.27469909 126.40981538 -61.73993281 128.48926379 -63.203125 130.5703125 C-69.93350451 140.1406915 -76.75223107 149.64381041 -83.61767578 159.11767578 C-85.22792444 161.34447194 -86.83178314 163.57572201 -88.43359375 165.80859375 C-94.71940334 174.56245127 -101.10574364 183.2316978 -107.59106445 191.83886719 C-111.87539989 197.52783963 -116.10542811 203.25374106 -120.3125 209 C-126.6064766 217.58124129 -133.11203326 225.98496105 -139.67626953 234.36035156 C-141.94781016 237.26831825 -144.19358198 240.19570305 -146.4375 243.125 C-154.28574887 253.33794927 -162.26371691 263.4330211 -170.41113281 273.40893555 C-173.93443561 277.73056821 -177.39128858 282.09731383 -180.8125 286.5 C-185.02593379 291.91079859 -189.41441571 297.14425911 -193.90380859 302.32763672 C-196.97799814 305.87863116 -199.98356658 309.47239711 -202.9375 313.125 C-206.4944586 317.50871114 -210.21966518 321.69741647 -214.0234375 325.8671875 C-216.22860757 328.35090536 -218.30511004 330.90294705 -220.375 333.5 C-224.90245123 339.10351799 -229.79350093 344.32440933 -234.75830078 349.54150391 C-238.45045395 353.42535562 -242.03111551 357.37938322 -245.54394531 361.42602539 C-248.24047841 364.50650961 -251.01857656 367.50793173 -253.8125 370.5 C-254.40748291 371.1381665 -255.00246582 371.77633301 -255.61547852 372.43383789 C-260.45639515 377.59481513 -265.43742675 382.60158426 -270.47070312 387.57421875 C-274.11087412 391.18526837 -277.53969226 394.90322739 -280.8515625 398.8203125 C-282.77343372 400.95691794 -284.93081803 402.6883222 -287.25 404.375 C-285.61827358 400.52154439 -283.03487823 397.61499268 -280.3125 394.5 C-274.88342916 388.18673029 -269.72077296 381.69685386 -264.61181641 375.12353516 C-262.84225359 372.85146473 -261.0604726 370.58915605 -259.27807617 368.32714844 C-257.43334928 365.98487274 -255.59341442 363.63885585 -253.75390625 361.29248047 C-252.71302976 359.96536295 -251.67130672 358.63890911 -250.62890625 357.31298828 C-242.21770528 346.60716118 -234.03430446 335.75723905 -226 324.76611328 C-223.09354846 320.79488192 -220.17099453 316.83553932 -217.25 312.875 C-216.0832556 311.29172395 -214.91658894 309.7083906 -213.75 308.125 C-206.75 298.625 -206.75 298.625 -204.99975586 296.24975586 C-203.83379194 294.66731815 -202.66793896 293.08479869 -201.50219727 291.50219727 C-198.57568557 287.52948113 -195.64722466 283.55823006 -192.71484375 279.58984375 C-180.59873046 263.18651614 -168.68977217 246.65533194 -157.02929688 229.92480469 C-155.2368041 227.35608974 -153.43955768 224.79077086 -151.640625 222.2265625 C-145.91507135 214.06466933 -140.20913783 205.89105788 -134.57568359 197.6652832 C-131.85521606 193.69715298 -129.11611952 189.74263205 -126.36328125 185.796875 C-125.67347168 184.80792236 -124.98366211 183.81896973 -124.27294922 182.80004883 C-122.93607556 180.88488575 -121.59797043 178.97058135 -120.25830078 177.05737305 C-116.21699752 171.26696411 -112.26421587 165.42427954 -108.35734558 159.54292297 C-104.82910977 154.23422854 -101.27110013 148.94611899 -97.703125 143.6640625 C-97.12708527 142.81118652 -96.55104553 141.95831055 -95.95755005 141.07958984 C-94.75782171 139.30345674 -93.5580321 137.52736501 -92.35818481 135.75131226 C-67.05642314 98.41792519 -67.05642314 98.41792519 -42.54296875 60.56640625 C-38.96422591 54.90033379 -35.29688593 49.2934965 -31.625 43.6875 C-24.65831733 33.04398198 -17.84871404 22.30695687 -11.09277344 11.52880859 C-10.10569229 9.95533815 -9.11548726 8.38382855 -8.125 6.8125 C-7.34769531 5.57306641 -7.34769531 5.57306641 -6.5546875 4.30859375 C-4.46975131 1.2186434 -3.81929081 0.4406874 0 0 Z " fill="#FBFCFC" transform="translate(419.25,96.625)"/>
<path d="M0 0 C3.62909774 17.08624027 7.0102412 34.21098132 10.25 51.375 C10.48544525 52.61869354 10.7208905 53.86238708 10.96347046 55.14376831 C15.27855954 77.9470743 19.43000678 100.77777157 23.49737549 123.62640381 C24.61327916 129.87978156 25.75926602 136.12697304 26.92578125 142.37109375 C27.21840261 143.94522006 27.51096653 145.51935705 27.8034668 147.09350586 C28.33323276 149.94332291 28.87095437 152.79147573 29.41333008 155.63891602 C29.64044678 156.86151123 29.86756348 158.08410645 30.1015625 159.34375 C30.30088379 160.39755859 30.50020508 161.45136719 30.70556641 162.53710938 C31 165 31 165 30 167 C7.50195741 152.96219194 7.50195741 152.96219194 -1.16040039 147.46704102 C-21.46771705 134.58775618 -41.99859497 122.12760786 -62.78366089 110.03881836 C-66.57907448 107.83085224 -70.36636054 105.60963013 -74.1484375 103.37890625 C-100.33232454 87.9595061 -127.11292073 73.60494654 -153.921875 59.30859375 C-156.13547877 58.12251173 -158.34902262 56.93631788 -160.5625 55.75 C-161.59866455 55.20061768 -162.6348291 54.65123535 -163.70239258 54.08520508 C-164.64751709 53.57755615 -165.5926416 53.06990723 -166.56640625 52.546875 C-167.40115479 52.10182617 -168.23590332 51.65677734 -169.09594727 51.19824219 C-171 50 -171 50 -172 48 C-160.37513776 44.46245387 -148.68353427 41.34729662 -136.89385986 38.41073608 C-96.4956653 28.31438263 -56.45377379 16.90441235 -16.69970703 4.52026367 C-15.71817154 4.21509323 -14.73663605 3.90992279 -13.72535706 3.59550476 C-11.89677887 3.02601976 -10.06903823 2.4538359 -8.24229431 1.87849426 C-2.2204053 0 -2.2204053 0 0 0 Z " fill="#010101" transform="translate(452,352)"/>
<path d="M0 0 C2.97 0 5.94 0 9 0 C9.35827881 0.63091553 9.71655762 1.26183105 10.08569336 1.91186523 C11.70129052 4.75469737 13.31936097 7.59611399 14.9375 10.4375 C15.50146484 11.43072266 16.06542969 12.42394531 16.64648438 13.44726562 C17.18466797 14.39150391 17.72285156 15.33574219 18.27734375 16.30859375 C18.77484131 17.18314209 19.27233887 18.05769043 19.78491211 18.95874023 C20.84060192 20.92257517 20.84060192 20.92257517 22 22 C22.35827881 21.36908447 22.71655762 20.73816895 23.08569336 20.08813477 C24.70129052 17.24530263 26.31936097 14.40388601 27.9375 11.5625 C28.50146484 10.56927734 29.06542969 9.57605469 29.64648438 8.55273438 C30.18466797 7.60849609 30.72285156 6.66425781 31.27734375 5.69140625 C31.77484131 4.81685791 32.27233887 3.94230957 32.78491211 3.04125977 C34 1 34 1 35 0 C37.64 0 40.28 0 43 0 C43 13.86 43 27.72 43 42 C40.36 42 37.72 42 35 42 C34.505 29.625 34.505 29.625 34 17 C30.7 22.94 27.4 28.88 24 35 C19 34 19 34 17.60620117 32.50952148 C17.25533447 31.88634033 16.90446777 31.26315918 16.54296875 30.62109375 C16.19000732 30.01450928 15.8370459 29.4079248 15.47338867 28.78295898 C15.04904541 28.00895752 14.62470215 27.23495605 14.1875 26.4375 C12.805625 23.983125 11.42375 21.52875 10 19 C9.67 26.59 9.34 34.18 9 42 C6.03 42 3.06 42 0 42 C0 28.14 0 14.28 0 0 Z " fill="#F7F7F7" transform="translate(241,598)"/>
<path d="M0 0 C7 0 7 0 8.86108398 1.31005859 C9.31813721 1.91672363 9.77519043 2.52338867 10.24609375 3.1484375 C10.77396484 3.82519531 11.30183594 4.50195312 11.84570312 5.19921875 C12.37099609 5.91722656 12.89628906 6.63523437 13.4375 7.375 C13.95892578 8.05433594 14.48035156 8.73367188 15.01757812 9.43359375 C16.69014102 11.61342603 18.34473045 13.80700704 20 16 C22.64 19.3 25.28 22.6 28 26 C28.33 17.42 28.66 8.84 29 0 C31.64 0 34.28 0 37 0 C37 13.86 37 27.72 37 42 C30 42 30 42 27.0078125 39.359375 C26.02493748 38.174104 25.06485909 36.96966205 24.125 35.75 C23.61614258 35.12335449 23.10728516 34.49670898 22.58300781 33.85107422 C21.02840721 31.92023496 19.50951697 29.96622742 18 28 C17.53110352 27.3925293 17.06220703 26.78505859 16.57910156 26.15917969 C14.00287691 22.80543741 11.49844795 19.41454553 9 16 C8.67 24.58 8.34 33.16 8 42 C5.36 42 2.72 42 0 42 C0 28.14 0 14.28 0 0 Z " fill="#FCFCFC" transform="translate(465,598)"/>
<path d="M0 0 C2.31 0 4.62 0 7 0 C9.69032326 5.2407234 12.09816459 10.4775175 14.234375 15.96484375 C14.51726379 16.68362198 14.80015259 17.40240021 15.09161377 18.14295959 C15.68147465 19.64385622 16.26957512 21.14544584 16.85595703 22.64770508 C17.75783473 24.95756606 18.66559045 27.26505282 19.57421875 29.57226562 C20.14877823 31.03632466 20.72300922 32.50051266 21.296875 33.96484375 C21.70459137 35.00220924 21.70459137 35.00220924 22.12054443 36.06053162 C24 40.88370493 24 40.88370493 24 42 C21.03 42 18.06 42 15 42 C13.515 37.05 13.515 37.05 12 32 C4.08 32.495 4.08 32.495 -4 33 C-5.32 35.97 -6.64 38.94 -8 42 C-10.64 42 -13.28 42 -16 42 C-13.71231598 33.37494991 -10.33711175 25.26175401 -6.875 17.0625 C-6.04824658 15.09251291 -5.22290863 13.12194177 -4.39846802 11.15098572 C-3.65729654 9.38094339 -2.9124918 7.6124237 -2.16748047 5.84399414 C-1.37847659 3.92197278 -0.65701547 1.9710464 0 0 Z " fill="#F9F9F9" transform="translate(344,598)"/>
<path d="M0 0 C1.134375 0.020625 2.26875 0.04125 3.4375 0.0625 C5.720529 5.72073843 7.99907636 11.38075237 10.2734375 17.04248047 C11.04823993 18.96941151 11.82427795 20.8958462 12.6015625 22.82177734 C13.71677477 25.58562612 14.82757242 28.35121296 15.9375 31.1171875 C16.28748047 31.9818161 16.63746094 32.8464447 16.99804688 33.73727417 C17.31837891 34.53795319 17.63871094 35.3386322 17.96875 36.16357422 C18.25298828 36.8697287 18.53722656 37.57588318 18.83007812 38.30343628 C19.4375 40.0625 19.4375 40.0625 19.4375 42.0625 C16.7975 42.0625 14.1575 42.0625 11.4375 42.0625 C10.1175 39.0925 8.7975 36.1225 7.4375 33.0625 C2.1575 32.7325 -3.1225 32.4025 -8.5625 32.0625 C-9.5525 35.3625 -10.5425 38.6625 -11.5625 42.0625 C-14.5325 42.0625 -17.5025 42.0625 -20.5625 42.0625 C-16.94292736 32.18960065 -13.14285758 22.39340847 -9.25 12.625 C-8.58315186 10.94482788 -8.58315186 10.94482788 -7.90283203 9.23071289 C-7.48501465 8.1864917 -7.06719727 7.14227051 -6.63671875 6.06640625 C-6.26119873 5.12611572 -5.88567871 4.1858252 -5.4987793 3.21704102 C-3.99176281 -0.25086525 -4.11335802 0.07216418 0 0 Z " fill="#F9F9F9" transform="translate(203.5625,597.9375)"/>
<path d="M0 0 C2.31 0 4.62 0 7 0 C9.1236072 5.17550691 11.24135473 10.35335802 13.35375977 15.53344727 C14.07286474 17.29451736 14.79355333 19.05494168 15.51586914 20.81469727 C16.55514043 23.3474293 17.58865349 25.88244576 18.62109375 28.41796875 C18.94403915 29.20149216 19.26698456 29.98501556 19.59971619 30.7922821 C21.1074621 34.51042779 22.41213297 38.00319989 23 42 C20.36 42 17.72 42 15 42 C13.68 39.03 12.36 36.06 11 33 C5.72 32.67 0.44 32.34 -5 32 C-5.33 33.98 -5.66 35.96 -6 38 C-6.66 39.32 -7.32 40.64 -8 42 C-10.97 42 -13.94 42 -17 42 C-11.40928436 27.96823413 -5.79450219 13.94901686 0 0 Z " fill="#F9FAFA" transform="translate(587,598)"/>
<path d="M0 0 C9.57 0 19.14 0 29 0 C29 2.31 29 4.62 29 7 C22.07 7 15.14 7 8 7 C8 10.3 8 13.6 8 17 C14.27 17 20.54 17 27 17 C27 19.31 27 21.62 27 24 C20.73 24 14.46 24 8 24 C8 27.63 8 31.26 8 35 C15.26 35 22.52 35 30 35 C30 37.31 30 39.62 30 42 C20.1 42 10.2 42 0 42 C0 28.14 0 14.28 0 0 Z " fill="#FAFAFA" transform="translate(136,598)"/>
<path d="M0 0 C2.97 0 5.94 0 9 0 C16.57446809 20.53191489 16.57446809 20.53191489 20 30 C23.36150603 22.28043528 26.30925424 14.48987835 29.03173828 6.52563477 C30.9002449 1.0997551 30.9002449 1.0997551 32 0 C34.67058851 -0.14115161 37.32432238 -0.04247107 40 0 C39.28860399 4.83665099 37.47096578 9.09391029 35.62109375 13.58203125 C35.12380516 14.80329964 35.12380516 14.80329964 34.61647034 16.04924011 C33.56095654 18.63870742 32.49932275 21.2256142 31.4375 23.8125 C30.71899531 25.57210001 30.00089179 27.33186388 29.28320312 29.09179688 C27.52677761 33.39644364 25.76486066 37.69880506 24 42 C21.69 42 19.38 42 17 42 C15.38174633 38.23244883 13.76436056 34.46452629 12.14770508 30.69628906 C11.60007958 29.42015036 11.0522357 28.14410535 10.50415039 26.86816406 C8.66292415 22.58153284 6.82927788 18.29174499 5 14 C4.25242432 12.25299805 4.25242432 12.25299805 3.48974609 10.47070312 C3.03293457 9.39240234 2.57612305 8.31410156 2.10546875 7.203125 C1.6983667 6.24567383 1.29126465 5.28822266 0.87182617 4.30175781 C0 2 0 2 0 0 Z " fill="#F8F8F8" transform="translate(378,598)"/>
<path d="M0 0 C3.16839768 -0.602749 5.85201222 -0.78297262 9 0 C11.76357041 2.77498069 13.33250418 6.01452977 15.0625 9.5 C16.691875 12.635 18.32125 15.77 20 19 C23.3 12.73 26.6 6.46 30 0 C33.3 0 36.6 0 40 0 C39.17076798 1.4560022 38.34117509 2.91179978 37.51000977 4.36669922 C36.78660489 5.6369804 36.06712294 6.90950261 35.35131836 8.18408203 C33.63832024 11.21793255 31.89869704 14.14983594 29.9453125 17.0390625 C24.4710133 25.2845837 23.91444575 32.36903535 24 42 C21.36 42 18.72 42 16 42 C16.10183594 41.21882812 16.20367188 40.43765625 16.30859375 39.6328125 C16.82292297 25.63682339 8.54574505 14.67987201 1.36108398 3.26220703 C0 1 0 1 0 0 Z " fill="#F9F9F9" transform="translate(520,598)"/>
<path d="M0 0 C11.88 0 23.76 0 36 0 C36 2.31 36 4.62 36 7 C31.38 7 26.76 7 22 7 C22 18.55 22 30.1 22 42 C19.36 42 16.72 42 14 42 C14 30.45 14 18.9 14 7 C9.38 7 4.76 7 0 7 C0 4.69 0 2.38 0 0 Z " fill="#FEFEFE" transform="translate(81,598)"/>
<path d="M0 0 C-33.50969659 15.50858603 -67.87643514 28.94950371 -102.359375 42.12109375 C-103.04808685 42.3848732 -103.73679871 42.64865265 -104.44638062 42.92042542 C-108.26928564 44.37501609 -112.11014948 45.73538445 -116 47 C-116.33 45.35 -116.66 43.7 -117 42 C-115.91734863 41.62939453 -114.83469727 41.25878906 -113.71923828 40.87695312 C-93.08369695 33.8002809 -72.50969955 26.58613217 -52.125 18.8125 C-51.25634308 18.48138214 -50.38768616 18.15026428 -49.4927063 17.80911255 C-40.6222162 14.41824418 -31.7883331 10.95437057 -23.02734375 7.2890625 C-22.33813843 7.00091171 -21.64893311 6.71276093 -20.93884277 6.4158783 C-17.76284412 5.08361153 -14.59581052 3.735071 -11.43603516 2.36450195 C-10.35499512 1.90261475 -9.27395508 1.44072754 -8.16015625 0.96484375 C-7.22824463 0.5587085 -6.29633301 0.15257324 -5.33618164 -0.26586914 C-3 -1 -3 -1 0 0 Z " fill="#EFEFEF" transform="translate(647,278)"/>
<path d="M0 0 C2.64 0 5.28 0 8 0 C8 13.86 8 27.72 8 42 C5.36 42 2.72 42 0 42 C0 28.14 0 14.28 0 0 Z " fill="#FDFDFD" transform="translate(436,598)"/>
<path d="M0 0 C-1 3 -1 3 -2.79418945 3.99902344 C-3.94213989 4.42489746 -3.94213989 4.42489746 -5.11328125 4.859375 C-6.3672168 5.32537109 -6.3672168 5.32537109 -7.64648438 5.80078125 C-8.52626953 6.11402344 -9.40605469 6.42726563 -10.3125 6.75 C-11.18068359 7.07871094 -12.04886719 7.40742188 -12.94335938 7.74609375 C-20.06295759 10.33603201 -20.06295759 10.33603201 -24 9 C-23.74121094 7.10864258 -23.74121094 7.10864258 -23 5 C-21.31347656 3.97924805 -21.31347656 3.97924805 -19.140625 3.26171875 C-17.96113281 2.86823242 -17.96113281 2.86823242 -16.7578125 2.46679688 C-15.93023438 2.20962891 -15.10265625 1.95246094 -14.25 1.6875 C-13.03183594 1.27274414 -13.03183594 1.27274414 -11.7890625 0.84960938 C-7.54840054 -0.52135381 -4.37950023 -1.52214337 0 0 Z " fill="#F5F5F5" transform="translate(532,322)"/>
<path d="M0 0 C1.91385532 2.87078299 2.96432952 5.33411656 4.125 8.5625 C4.47820312 9.53316406 4.83140625 10.50382813 5.1953125 11.50390625 C6 14 6 14 6 16 C2.04 16 -1.92 16 -6 16 C-5.19110952 13.51960151 -4.37808099 11.04069788 -3.5625 8.5625 C-3.33240234 7.85544922 -3.10230469 7.14839844 -2.86523438 6.41992188 C-1.11328125 1.11328125 -1.11328125 1.11328125 0 0 Z " fill="#0B0B0B" transform="translate(203,608)"/>
<path d="M0 0 C0.66 0 1.32 0 2 0 C2.67220351 1.93558599 3.33758077 3.87354372 4 5.8125 C4.556875 7.43091797 4.556875 7.43091797 5.125 9.08203125 C6 12 6 12 6 15 C2.37 15 -1.26 15 -5 15 C-1.85714286 4.28571429 -1.85714286 4.28571429 0 0 Z " fill="#0A0A0A" transform="translate(347,609)"/>
<path d="M0 0 C2.38125464 2.38125464 3.00186241 4.33857567 4.125 7.5 C4.65480469 8.96953125 4.65480469 8.96953125 5.1953125 10.46875 C6 13 6 13 6 15 C2.37 15 -1.26 15 -5 15 C-4.43174347 9.45949887 -2.37113483 4.96284034 0 0 Z " fill="#080809" transform="translate(590,609)"/>
<path d="M0 0 C0.99 0.33 1.98 0.66 3 1 C1.66000502 4.006818 0.20154709 5.99762609 -2.1875 8.25 C-4.81665001 10.79169387 -7.25490924 13.4025137 -9.625 16.1875 C-12.18866417 19.16783193 -14.80579753 21.67694366 -18 24 C-16.32307817 19.96950367 -13.5240002 16.93544034 -10.6875 13.6875 C-6.88035849 9.26660338 -3.26644387 4.84334781 0 0 Z " fill="#F2F2F2" transform="translate(150,477)"/>
<path d="M0 0 C0.99 0.33 1.98 0.66 3 1 C0.36 3.64 -2.28 6.28 -5 9 C-5 4.61031544 -2.87194899 3.23094261 0 0 Z " fill="#DEDEDD" transform="translate(138,492)"/>
</svg>
